<?xml version="1.0" standalone="no"?>
<!DOCTYPE svg PUBLIC "-//W3C//DTD SVG 20010904//EN" "http://www.w3.org/TR/2001/REC-SVG-20010904/DTD/svg10.dtd">
<svg xmlns="http://www.w3.org/2000/svg" version="1.0" width="358.000000pt" height="156.000000pt" viewBox="0 0 358.000000 156.000000" preserveAspectRatio="xMidYMid meet">
<metadata>
Created by potrace 1.16, written by Peter Selinger 2001-2019
<meta name="Producer" content="Online-Convert"/></metadata>
<g transform="translate(0.000000,156.000000) scale(0.100000,-0.100000)" fill="#000000" stroke="none">
<path d="M3350 1035 l0 -146 -27 21 c-34 24 -111 40 -164 33 -93 -13 -193 -107 -220 -206 -34 -124 29 -279 133 -331 87 -43 213 -32 273 24 21 19 21 19 78 -25 l57 -45 0 363 0 364 -59 47 c-33 25 -62 46 -65 46 -3 0 -6 -65 -6 -145z m-55 -246 c41 -36 58 -87 49 -152 -12 -87 -65 -137 -146 -137 -107 0 -167 143 -107 250 29 51 60 69 121 70 39 0 54 -6 83 -31z"/>
<path d="M100 771 l0 -391 213 0 c239 0 265 6 323 72 75 85 69 258 -12 333 l-23 21 24 49 c52 101 12 225 -88 277 -38 20 -61 22 -239 26 l-198 4 0 -391z m383 232 c44 -50 23 -125 -41 -142 -20 -6 -72 -11 -114 -11 l-78 0 0 85 0 85 108 0 c91 0 111 -3 125 -17z m2 -288 c42 -17 59 -53 52 -115 -4 -32 -12 -51 -32 -67 -24 -21 -36 -23 -141 -23 l-114 0 0 110 0 110 100 0 c65 0 113 -5 135 -15z"/>
<path d="M1751 958 c-5 -13 -37 -95 -71 -183 -34 -88 -65 -163 -69 -168 -4 -4 -37 68 -72 160 l-65 168 -72 3 c-40 2 -72 0 -72 -3 0 -3 44 -122 99 -263 54 -141 101 -265 104 -275 6 -15 16 -17 68 -15 l61 3 94 243 c52 134 94 249 94 256 0 15 -68 96 -81 96 -5 0 -13 -10 -18 -22z"/>
<path d="M2540 718 l1 -253 62 -47 62 -47 5 205 5 206 28 24 c35 30 78 31 154 4 l56 -20 -24 28 c-69 79 -115 122 -132 122 -23 0 -69 -24 -86 -44 -12 -14 -20 -10 -72 30 l-59 45 0 -253z"/>
<path d="M1150 930 l0 -30 -41 21 c-93 47 -219 21 -294 -63 -55 -60 -75 -111 -75 -194 0 -125 51 -219 145 -264 38 -18 59 -21 125 -19 69 4 84 8 123 35 l44 31 52 -43 c29 -24 55 -44 57 -44 2 0 4 112 4 250 l0 249 -62 51 c-35 27 -66 50 -70 50 -5 0 -8 -14 -8 -30z m-62 -135 c88 -74 79 -236 -15 -280 -156 -75 -276 144 -148 272 29 29 40 33 83 33 39 0 57 -6 80 -25z"/>
<path d="M2300 925 l0 -36 -27 21 c-36 26 -117 40 -170 31 -22 -5 -62 -20 -87 -35 -182 -106 -177 -409 7 -501 86 -42 213 -31 272 25 20 19 21 19 78 -26 l57 -46 -1 254 0 253 -59 48 c-32 26 -61 47 -64 47 -3 0 -6 -16 -6 -35z m-74 -124 c62 -38 88 -156 50 -229 -36 -69 -133 -92 -201 -48 -80 52 -71 235 13 280 38 21 101 20 138 -3z"/>
</g>
</svg>
